<?xml version="1.0" encoding="UTF-8" standalone="no"?>
<!-- Created with Inkscape (http://www.inkscape.org/) -->

<svg
   version="1.1"
   id="svg1"
   width="500"
   height="500"
   viewBox="0 0 500 500"
   sodipodi:docname="logo-hearts-inverted.svg"
   inkscape:version="1.4.2 (ebf0e940, 2025-05-08)"
   xmlns:inkscape="http://www.inkscape.org/namespaces/inkscape"
   xmlns:sodipodi="http://sodipodi.sourceforge.net/DTD/sodipodi-0.dtd"
   xmlns="http://www.w3.org/2000/svg"
   xmlns:svg="http://www.w3.org/2000/svg">
  <defs
     id="defs1">
    <clipPath
       clipPathUnits="userSpaceOnUse"
       id="clipPath2">
      <path
         style="fill:#669366;fill-opacity:1;stroke-width:1.038"
         d="m -9.9305175,327.33244 6.33e-4,-7.95804 h 7.302346 c 12.4679851,0 29.7657935,-2.72015 39.4641085,-6.20588 5.107197,-1.83559 19.562041,-6.15485 32.121902,-9.59835 12.559858,-3.44349 33.112348,-10.07398 45.672198,-14.73443 12.55986,-4.66045 27.81852,-10.3268 33.90815,-12.5919 6.08961,-2.26509 11.57498,-4.60906 12.18966,-5.20885 0.6147,-0.59975 -5.19361,-7.04417 -12.90737,-14.32091 -22.26395,-21.00266 -37.8384,-42.53631 -44.25609,-61.1896 -3.12934,-9.09563 -3.735584,-26.11588 -1.27785,-35.87642 2.31943,-9.21132 12.50625,-21.17248 21.56293,-25.31877 20.55177,-9.40891 48.87555,-5.69308 66.4642,8.71948 4.93034,4.04002 6.13313,4.51728 6.82708,2.70886 0.54151,-1.41114 -1.15547,-4.36259 -4.75118,-8.26347 -21.76125,-23.60818 -33.01823,-49.198312 -31.80556,-72.302682 0.50489,-9.61946 1.38325,-12.96656 5.68896,-21.67857 8.81628,-17.83854 25.37564,-31.7458 44.82702,-37.647678 8.56197,-2.597837 29.10215,-2.580577 40.19026,0.0338 19.38567,4.570768 36.45971,15.983848 44.23443,29.568368 2.01893,3.52759 3.8586,6.66057 4.08817,6.96217 0.22957,0.30159 3.07703,-1.89256 6.32771,-4.87592 17.6911,-16.23622 36.8806,-25.48211 63.07405,-30.390314 26.93913,-5.047942 52.12603,5.283654 62.51228,25.642344 4.51109,8.8425 7.31613,24.16449 6.22223,33.98763 -2.52415,22.66685 -28.34946,59.860672 -64.65512,93.116902 -22.01817,20.16879 -35.09395,33.17603 -34.17388,33.99479 0.336,0.29899 9.01874,3.66683 19.29497,7.4841 20.76094,7.71194 41.29447,14.26059 73.26822,23.36701 11.75239,3.34723 24.05558,7.66087 27.34045,9.58593 7.72018,4.52431 29.6234,12.43877 42.35166,15.30324 5.48477,1.23435 11.21796,2.94818 12.74036,3.80854 1.52239,0.86037 5.2592,2.21432 8.30403,3.00883 l 5.53602,1.44453 0.42071,8.08634 0.42069,8.08635 -5.89792,-0.94313 c -3.24388,-0.51871 -8.67095,-2.16975 -12.06018,-3.66898 -3.38922,-1.49921 -10.95662,-3.91912 -16.81641,-5.37752 -12.58918,-3.13327 -34.90762,-11.3041 -45.72097,-16.73851 -4.22714,-2.12446 -13.88059,-5.52521 -21.45207,-7.55722 -22.34402,-5.99666 -52.23885,-15.65016 -77.95699,-25.17354 l -24.05449,-8.90734 -4.26284,3.89216 c -22.50551,20.54836 -29.95558,27.56162 -66.65272,62.74449 -12.94045,12.40649 -25.86242,24.94828 -28.71547,27.87066 -3.00867,3.08173 -6.50855,5.31339 -8.33298,5.31339 -3.35829,0 -18.95227,-8.98119 -31.45396,-18.11561 -4.18339,-3.0566 -8.54301,-5.25719 -9.68804,-4.89018 -1.14505,0.36698 -11.11255,4.18852 -22.14999,8.49232 -38.74234,15.10663 -57.575921,21.63183 -80.240443,27.80068 -12.577383,3.42333 -28.473225,8.13863 -35.324052,10.47842 -10.308013,3.52057 -15.499242,4.40393 -30.1027774,5.12238 l -17.6467351,0.86811 z M 241.41,262.28414 c 14.48409,-13.89194 34.85743,-33.29502 45.27409,-43.11794 10.41668,-9.82287 18.93941,-18.26383 18.93941,-18.75764 0,-0.4938 -4.51532,-2.3488 -10.03405,-4.12216 -5.51871,-1.77335 -10.694,-3.4741 -11.50061,-3.7794 -0.80661,-0.30533 -5.56069,4.91554 -10.56464,11.60191 -15.79222,21.10194 -49.93794,51.6628 -72.48893,64.87856 -3.37273,1.97656 -6.13225,4.04023 -6.13225,4.58596 0,1.42873 17.30385,13.96882 19.2753,13.96882 0.49336,0 12.7476,-11.36614 27.23168,-25.25811 z m -49.84191,-6.24031 c 6.02083,-3.62249 16.24078,-10.56288 22.71102,-15.42317 13.17485,-9.89661 41.67006,-38.04275 48.36287,-47.77042 l 4.37213,-6.35464 -3.1854,-1.21962 c -17.10846,-6.55037 -44.89588,-21.92331 -50.17832,-27.76033 -2.47757,-2.73771 -2.70398,-2.75603 -5.27923,-0.42717 -1.47985,1.33827 -3.87199,4.7479 -5.31589,7.57696 -5.33024,10.44367 -13.57956,9.65967 -17.71648,-1.68372 -1.85723,-5.09252 -3.65267,-7.05513 -9.84761,-10.76444 -10.18631,-6.0992 -16.6879,-7.64848 -29.02838,-6.91727 -12.81925,0.75958 -20.13376,4.25197 -25.68614,12.26408 -3.72461,5.3746 -4.06436,6.85741 -4.06703,17.7511 -0.002,10.51513 0.51011,12.96978 4.44354,21.27396 2.4456,5.16302 7.58749,13.93094 11.42649,19.48423 9.39916,13.59636 42.7776,46.55677 47.14727,46.55677 0.49182,0 5.82034,-2.96384 11.84116,-6.58632 z M 337.788,171.5837 c 9.33225,-8.97058 21.57872,-20.64813 27.21436,-25.9501 24.30797,-22.86877 41.49048,-44.06148 50.89118,-62.768492 4.97369,-9.89742 5.29302,-11.29047 5.27072,-22.99182 -0.0352,-18.51167 -5.1497,-27.05998 -20.73635,-34.65926 -9.34899,-4.55811 -21.98938,-4.54776 -39.08389,0.032 -20.95435,5.61388 -32.80809,12.5834 -51.12112,30.05718 -6.66926,6.36359 -12.49505,10.79803 -14.18606,10.79803 -3.75224,0 -8.13492,-4.47643 -9.11196,-9.30685 -1.37992,-6.82234 -7.82161,-18.28328 -12.6677,-22.53822 -10.17019,-8.92954 -28.02109,-15.15002 -43.5927,-15.19068 -16.48738,-0.0431 -34.45734,8.79488 -44.40501,21.83913 -8.02851,10.5277 -9.88839,16.02092 -9.74337,28.77746 0.10511,9.24567 0.88941,13.02365 4.50832,21.7167 4.5283,10.877412 13.6337,24.849312 23.12116,35.478532 l 5.45175,6.10785 7.53091,-3.54896 c 22.57183,-10.63704 48.96745,-7.2373 65.43044,8.4274 8.4532,8.04334 11.09839,14.41053 10.11731,24.35334 -0.45464,4.6072 -1.20925,10.00481 -1.67697,11.9947 -0.82638,3.5159 -0.44669,3.75373 13.46109,8.43172 7.8713,2.64758 14.77242,4.91203 15.33582,5.03209 0.56341,0.12014 8.65983,-7.12126 17.99207,-16.09182 z m -61.68956,-4.10398 c 2.97549,-11.60529 -0.83161,-18.14921 -14.42906,-24.80183 -6.69627,-3.27617 -8.45917,-3.5395 -19.48679,-2.91074 -6.78653,0.38696 -13.87527,1.60865 -16.1012,2.77492 l -3.97672,2.0836 6.12127,4.46041 c 7.47855,5.44942 40.99623,22.19968 44.42211,22.19968 1.54031,0 2.843,-1.43697 3.45039,-3.80604 z"
         id="path3" />
    </clipPath>
  </defs>
  <sodipodi:namedview
     id="namedview1"
     pagecolor="#ffffff"
     bordercolor="#000000"
     borderopacity="0.25"
     inkscape:showpageshadow="2"
     inkscape:pageopacity="0.0"
     inkscape:pagecheckerboard="0"
     inkscape:deskcolor="#d1d1d1"
     inkscape:zoom="0.80205652"
     inkscape:cx="177.66828"
     inkscape:cy="50.495194"
     inkscape:window-width="1680"
     inkscape:window-height="1382"
     inkscape:window-x="1766"
     inkscape:window-y="31"
     inkscape:window-maximized="0"
     inkscape:current-layer="g1" />
  <g
     inkscape:groupmode="layer"
     inkscape:label="Image"
     id="g1"
     transform="translate(-9.3333435,92.391022)">
    <circle
       style="fill:#1a3e1e;fill-opacity:1;stroke-width:3.94131"
       id="path2-6"
       cx="259.33334"
       cy="157.60898"
       r="250" />
    <circle
       style="fill:#669366;fill-opacity:1;stroke-width:3.94131"
       id="path2"
       cx="259.33334"
       cy="157.60898"
       r="250"
       clip-path="url(#clipPath2)" />
  </g>
</svg>
